# xmcd
#
# Track frame offsets:
# 150
# 20649
# 38850
# 56724
# 76138
# 97014
# 123401
# 147691
# 167885
# 194307
# 214855
# 237647
#
# Disc length: 3436 seconds
#
#
# Revision: 0
# Processed by: cddbd v1.5.1PL2 Copyright (c) Steve Scherf et al.
# Submitted via: Nero 7, 2, 0, 3 
#
DISCID=b40d6a0c
DTITLE=dixie chicks - taking the long way
DYEAR=2006
DGENRE=Country
TTITLE0=taking the long way
TTITLE1=taking the long way
TTITLE2=taking the long way
TTITLE3=taking the long way
TTITLE4=taking the long way
TTITLE5=taking the long way
TTITLE6=taking the long way
TTITLE7=taking the long way
TTITLE8=taking the long way
TTITLE9=taking the long way
TTITLE10=taking the long way
TTITLE11=taking the long way
EXTD=
EXTT0=
EXTT1=
EXTT2=
EXTT3=
EXTT4=
EXTT5=
EXTT6=
EXTT7=
EXTT8=
EXTT9=
EXTT10=
EXTT11=
PLAYORDER=
